<mxfile host="app.diagrams.net" modified="2021-07-01T05:41:28.315Z" agent="5.0 (Windows NT 10.0; Win64; x64) AppleWebKit/537.36 (KHTML, like Gecko) Chrome/91.0.4472.114 Safari/537.36" etag="OikakcUpbT2B79DoRuRc" version="14.8.3" type="github">
  <diagram id="SSgvCMMXN-fiZLv6vXAu" name="Page-1">
    <mxGraphModel dx="1251" dy="749" grid="1" gridSize="10" guides="1" tooltips="1" connect="1" arrows="1" fold="1" page="1" pageScale="1" pageWidth="827" pageHeight="1169" math="0" shadow="0">
      <root>
        <mxCell id="0" />
        <mxCell id="1" parent="0" />
        <mxCell id="SC-kNezh__vUH8XIp6Oi-3" value="" style="strokeWidth=2;html=1;shape=mxgraph.flowchart.multi-document;whiteSpace=wrap;fillColor=#f5f5f5;strokeColor=#666666;fontColor=#333333;" vertex="1" parent="1">
          <mxGeometry x="90" y="205" width="88" height="60" as="geometry" />
        </mxCell>
        <mxCell id="SC-kNezh__vUH8XIp6Oi-7" value="Actor" style="shape=umlActor;verticalLabelPosition=bottom;verticalAlign=top;html=1;outlineConnect=0;" vertex="1" parent="1">
          <mxGeometry x="690" y="360" width="30" height="60" as="geometry" />
        </mxCell>
        <mxCell id="SC-kNezh__vUH8XIp6Oi-22" style="edgeStyle=orthogonalEdgeStyle;rounded=0;orthogonalLoop=1;jettySize=auto;html=1;entryX=0;entryY=0.5;entryDx=0;entryDy=0;" edge="1" parent="1" source="SC-kNezh__vUH8XIp6Oi-15" target="SC-kNezh__vUH8XIp6Oi-21">
          <mxGeometry relative="1" as="geometry" />
        </mxCell>
        <mxCell id="SC-kNezh__vUH8XIp6Oi-15" value="" style="rounded=0;whiteSpace=wrap;html=1;" vertex="1" parent="1">
          <mxGeometry x="200" y="200" width="105" height="70" as="geometry" />
        </mxCell>
        <mxCell id="SC-kNezh__vUH8XIp6Oi-17" value="" style="strokeWidth=2;html=1;shape=mxgraph.flowchart.multi-document;whiteSpace=wrap;fillColor=#f5f5f5;strokeColor=#666666;fontColor=#333333;" vertex="1" parent="1">
          <mxGeometry x="90" y="360" width="88" height="60" as="geometry" />
        </mxCell>
        <mxCell id="SC-kNezh__vUH8XIp6Oi-24" style="edgeStyle=orthogonalEdgeStyle;rounded=0;orthogonalLoop=1;jettySize=auto;html=1;" edge="1" parent="1" source="SC-kNezh__vUH8XIp6Oi-18" target="SC-kNezh__vUH8XIp6Oi-21">
          <mxGeometry relative="1" as="geometry" />
        </mxCell>
        <mxCell id="SC-kNezh__vUH8XIp6Oi-18" value="" style="rounded=0;whiteSpace=wrap;html=1;" vertex="1" parent="1">
          <mxGeometry x="200" y="355" width="105" height="70" as="geometry" />
        </mxCell>
        <mxCell id="SC-kNezh__vUH8XIp6Oi-19" value="" style="strokeWidth=2;html=1;shape=mxgraph.flowchart.multi-document;whiteSpace=wrap;fillColor=#f5f5f5;strokeColor=#666666;fontColor=#333333;" vertex="1" parent="1">
          <mxGeometry x="90" y="500" width="88" height="60" as="geometry" />
        </mxCell>
        <mxCell id="SC-kNezh__vUH8XIp6Oi-25" style="edgeStyle=orthogonalEdgeStyle;rounded=0;orthogonalLoop=1;jettySize=auto;html=1;entryX=0;entryY=0.5;entryDx=0;entryDy=0;" edge="1" parent="1" source="SC-kNezh__vUH8XIp6Oi-20" target="SC-kNezh__vUH8XIp6Oi-21">
          <mxGeometry relative="1" as="geometry" />
        </mxCell>
        <mxCell id="SC-kNezh__vUH8XIp6Oi-20" value="" style="rounded=0;whiteSpace=wrap;html=1;" vertex="1" parent="1">
          <mxGeometry x="200" y="495" width="105" height="70" as="geometry" />
        </mxCell>
        <mxCell id="SC-kNezh__vUH8XIp6Oi-27" style="edgeStyle=orthogonalEdgeStyle;rounded=0;orthogonalLoop=1;jettySize=auto;html=1;entryX=0;entryY=0.5;entryDx=0;entryDy=0;" edge="1" parent="1" source="SC-kNezh__vUH8XIp6Oi-21" target="SC-kNezh__vUH8XIp6Oi-26">
          <mxGeometry relative="1" as="geometry" />
        </mxCell>
        <mxCell id="SC-kNezh__vUH8XIp6Oi-21" value="" style="rounded=0;whiteSpace=wrap;html=1;" vertex="1" parent="1">
          <mxGeometry x="370" y="355" width="105" height="70" as="geometry" />
        </mxCell>
        <mxCell id="SC-kNezh__vUH8XIp6Oi-29" value="" style="edgeStyle=orthogonalEdgeStyle;rounded=0;orthogonalLoop=1;jettySize=auto;html=1;" edge="1" parent="1" source="SC-kNezh__vUH8XIp6Oi-26" target="SC-kNezh__vUH8XIp6Oi-7">
          <mxGeometry relative="1" as="geometry" />
        </mxCell>
        <mxCell id="SC-kNezh__vUH8XIp6Oi-26" value="" style="rounded=0;whiteSpace=wrap;html=1;" vertex="1" parent="1">
          <mxGeometry x="530" y="355" width="105" height="70" as="geometry" />
        </mxCell>
      </root>
    </mxGraphModel>
  </diagram>
</mxfile>
